<svg width="32" height="32" fill="none" xmlns="http://www.w3.org/2000/svg"><path d="M16 32c8.822 0 16-7.178 16-16S24.822 0 16 0 0 7.178 0 16s7.178 16 16 16zm0-31c8.271 0 15 6.729 15 15s-6.729 15-15 15S1 24.271 1 16 7.729 1 16 1z" fill="#000"/><path d="M20.061 21.768a.497.497 0 00.708 0 .5.5 0 000-.707L16 16.293V9.319a.5.5 0 00-1 0V16.5c0 .133.053.26.146.354l4.915 4.914zM4 17a1 1 0 100-2 1 1 0 000 2zm24 0a1 1 0 100-2 1 1 0 000 2zM16 5a1 1 0 100-2 1 1 0 000 2zm0 24a1 1 0 100-2 1 1 0 000 2zM8 9a1 1 0 100-2 1 1 0 000 2zm16 16a1 1 0 100-2 1 1 0 000 2zm1-16a1 1 0 100-2 1 1 0 000 2zM8 25a1 1 0 100-2 1 1 0 000 2z" fill="#000"/></svg>