<svg xmlns="http://www.w3.org/2000/svg" width="64" height="64"><path d="M57.334 46.09a28.91 28.91 0 000-28.18.971.971 0 00-.406-.706 29 29 0 100 29.592.971.971 0 00.406-.706zM15.38 47h4.579A27.377 27.377 0 0025.1 57.342 22.448 22.448 0 0115.38 47zM5.025 33h4.994a36.32 36.32 0 002.324 12h-4a26.807 26.807 0 01-3.318-12zm3.32-14h4a36.32 36.32 0 00-2.324 12H5.025a26.807 26.807 0 013.32-12zm40.275-2h-4.579A27.377 27.377 0 0038.9 6.658 22.448 22.448 0 0148.62 17zm10.355 14h-4.994a36.32 36.32 0 00-2.324-12h4a26.807 26.807 0 013.318 12zm-6.994 0h-5.993a56.232 56.232 0 00-1.427-12h4.961a34.255 34.255 0 012.459 12zM31 19v12H20.012a53.521 53.521 0 011.526-12zm-8.91-2c2-6.586 5.252-11.177 8.91-11.894V17zM31 33v12h-9.462a53.521 53.521 0 01-1.526-12zm0 14v11.894c-3.658-.717-6.909-5.308-8.91-11.894zm2-2V33h10.988a53.521 53.521 0 01-1.526 12zm8.91 2c-2 6.586-5.253 11.177-8.91 11.894V47zM33 31V19h9.462a53.521 53.521 0 011.526 12zm0-14V5.106c3.657.717 6.908 5.308 8.91 11.894zM25.1 6.658A27.377 27.377 0 0019.959 17H15.38A22.448 22.448 0 0125.1 6.658zM19.438 19a56.234 56.234 0 00-1.426 12h-5.993a34.255 34.255 0 012.458-12zm-7.419 14h5.993a56.234 56.234 0 001.426 12h-4.961a34.255 34.255 0 01-2.458-12zM38.9 57.342A27.377 27.377 0 0044.041 47h4.579a22.448 22.448 0 01-9.72 10.342zM44.561 45a56.232 56.232 0 001.427-12h5.993a34.255 34.255 0 01-2.459 12zm9.42-12h4.994a26.807 26.807 0 01-3.32 12h-4a36.32 36.32 0 002.326-12zm.456-16h-3.615a27.44 27.44 0 00-6.5-9.012A27.187 27.187 0 0154.437 17zm-34.76-9.012A27.452 27.452 0 0013.178 17H9.563a27.184 27.184 0 0110.114-9.012zM9.563 47h3.615a27.452 27.452 0 006.5 9.012A27.184 27.184 0 019.563 47zm34.759 9.012a27.44 27.44 0 006.5-9.012h3.615a27.187 27.187 0 01-10.115 9.012z"/></svg>