<svg width="24" height="18" fill="none" xmlns="http://www.w3.org/2000/svg"><path d="M23.5 3.507a2.786 2.786 0 00-.766-1.27 3.05 3.05 0 00-1.338-.742C19.518 1 11.994 1 11.994 1a76.623 76.623 0 00-9.39.47c-.502.14-.961.4-1.338.76-.37.356-.638.795-.778 1.276A29.09 29.09 0 000 9c-.012 1.841.151 3.68.488 5.494.137.479.404.916.775 1.269.371.353.833.608 1.341.743 1.903.494 9.39.494 9.39.494 3.14.036 6.28-.121 9.402-.47a3.05 3.05 0 001.338-.742 2.78 2.78 0 00.765-1.27c.345-1.811.513-3.651.501-5.495.026-1.851-.142-3.7-.5-5.517v.001zM9.602 12.424V5.577l6.26 3.424-6.26 3.423z" fill="#000"/></svg>