<svg width="32" height="32" viewBox="0 0 32 32" fill="none" xmlns="http://www.w3.org/2000/svg">
<path d="M16 32C24.822 32 32 24.822 32 16C32 7.178 24.822 0 16 0C7.178 0 0 7.178 0 16C0 24.822 7.178 32 16 32ZM16 1C24.271 1 31 7.729 31 16C31 24.271 24.271 31 16 31C7.729 31 1 24.271 1 16C1 7.729 7.729 1 16 1Z" fill="black"/>
<path d="M20.061 21.768C20.1073 21.8148 20.1624 21.852 20.2232 21.8773C20.284 21.9027 20.3492 21.9157 20.415 21.9157C20.4808 21.9157 20.546 21.9027 20.6068 21.8773C20.6676 21.852 20.7227 21.8148 20.769 21.768C20.8627 21.6742 20.9154 21.5471 20.9154 21.4145C20.9154 21.2819 20.8627 21.1548 20.769 21.061L16 16.293V9.319C16 9.18639 15.9473 9.05921 15.8536 8.96545C15.7598 8.87168 15.6326 8.819 15.5 8.819C15.3674 8.819 15.2402 8.87168 15.1464 8.96545C15.0527 9.05921 15 9.18639 15 9.319V16.5C15 16.633 15.053 16.76 15.146 16.854L20.061 21.768Z" fill="black"/>
<path d="M4 17C4.55228 17 5 16.5523 5 16C5 15.4477 4.55228 15 4 15C3.44772 15 3 15.4477 3 16C3 16.5523 3.44772 17 4 17Z" fill="black"/>
<path d="M28 17C28.5523 17 29 16.5523 29 16C29 15.4477 28.5523 15 28 15C27.4477 15 27 15.4477 27 16C27 16.5523 27.4477 17 28 17Z" fill="black"/>
<path d="M16 5C16.5523 5 17 4.55228 17 4C17 3.44772 16.5523 3 16 3C15.4477 3 15 3.44772 15 4C15 4.55228 15.4477 5 16 5Z" fill="black"/>
<path d="M16 29C16.5523 29 17 28.5523 17 28C17 27.4477 16.5523 27 16 27C15.4477 27 15 27.4477 15 28C15 28.5523 15.4477 29 16 29Z" fill="black"/>
<path d="M8 9C8.55228 9 9 8.55228 9 8C9 7.44772 8.55228 7 8 7C7.44772 7 7 7.44772 7 8C7 8.55228 7.44772 9 8 9Z" fill="black"/>
<path d="M24 25C24.5523 25 25 24.5523 25 24C25 23.4477 24.5523 23 24 23C23.4477 23 23 23.4477 23 24C23 24.5523 23.4477 25 24 25Z" fill="black"/>
<path d="M25 9C25.5523 9 26 8.55228 26 8C26 7.44772 25.5523 7 25 7C24.4477 7 24 7.44772 24 8C24 8.55228 24.4477 9 25 9Z" fill="black"/>
<path d="M8 25C8.55228 25 9 24.5523 9 24C9 23.4477 8.55228 23 8 23C7.44772 23 7 23.4477 7 24C7 24.5523 7.44772 25 8 25Z" fill="black"/>
</svg>
