<svg xmlns="http://www.w3.org/2000/svg" width="64" height="64" viewBox="0 0 64 64"><path d="M57.334,46.09a28.91,28.91,0,0,0,0-28.18.971.971,0,0,0-.406-.706,29,29,0,1,0,0,29.592A.971.971,0,0,0,57.334,46.09ZM15.38,47h4.579A27.377,27.377,0,0,0,25.1,57.342,22.448,22.448,0,0,1,15.38,47ZM5.025,33h4.994a36.32,36.32,0,0,0,2.324,12h-4A26.807,26.807,0,0,1,5.025,33Zm3.32-14h4a36.32,36.32,0,0,0-2.324,12H5.025A26.807,26.807,0,0,1,8.345,19ZM48.62,17H44.041A27.377,27.377,0,0,0,38.9,6.658,22.448,22.448,0,0,1,48.62,17ZM58.975,31H53.981a36.32,36.32,0,0,0-2.324-12h4A26.807,26.807,0,0,1,58.975,31Zm-6.994,0H45.988a56.232,56.232,0,0,0-1.427-12h4.961A34.255,34.255,0,0,1,51.981,31ZM31,19V31H20.012a53.521,53.521,0,0,1,1.526-12Zm-8.91-2c2-6.586,5.252-11.177,8.91-11.894V17ZM31,33V45H21.538a53.521,53.521,0,0,1-1.526-12Zm0,14V58.894c-3.658-.717-6.909-5.308-8.91-11.894Zm2-2V33H43.988a53.521,53.521,0,0,1-1.526,12Zm8.91,2c-2,6.586-5.253,11.177-8.91,11.894V47ZM33,31V19h9.462a53.521,53.521,0,0,1,1.526,12Zm0-14V5.106c3.657.717,6.908,5.308,8.91,11.894ZM25.1,6.658A27.377,27.377,0,0,0,19.959,17H15.38A22.448,22.448,0,0,1,25.1,6.658ZM19.438,19a56.234,56.234,0,0,0-1.426,12H12.019a34.255,34.255,0,0,1,2.458-12ZM12.019,33h5.993a56.234,56.234,0,0,0,1.426,12H14.477A34.255,34.255,0,0,1,12.019,33ZM38.9,57.342A27.377,27.377,0,0,0,44.041,47H48.62A22.448,22.448,0,0,1,38.9,57.342ZM44.561,45a56.232,56.232,0,0,0,1.427-12h5.993a34.255,34.255,0,0,1-2.459,12Zm9.42-12h4.994a26.807,26.807,0,0,1-3.32,12h-4A36.32,36.32,0,0,0,53.981,33Zm.456-16H50.822a27.44,27.44,0,0,0-6.5-9.012A27.187,27.187,0,0,1,54.437,17ZM19.677,7.988A27.452,27.452,0,0,0,13.178,17H9.563A27.184,27.184,0,0,1,19.677,7.988ZM9.563,47h3.615a27.452,27.452,0,0,0,6.5,9.012A27.184,27.184,0,0,1,9.563,47Zm34.759,9.012A27.44,27.44,0,0,0,50.822,47h3.615A27.187,27.187,0,0,1,44.322,56.012Z"/></svg>