<svg width="24" height="18" viewBox="0 0 24 18" fill="none" xmlns="http://www.w3.org/2000/svg">
<path d="M23.5 3.507C23.3641 3.02223 23.0994 2.58335 22.734 2.237C22.3583 1.88 21.8978 1.62464 21.396 1.495C19.518 1 11.994 1 11.994 1C8.85734 0.964312 5.72144 1.12127 2.60401 1.47C2.1022 1.60921 1.64257 1.87029 1.26601 2.23C0.896007 2.586 0.628007 3.025 0.488007 3.506C0.1517 5.31774 -0.0117011 7.15734 6.83166e-06 9C-0.0119932 10.841 0.151007 12.68 0.488007 14.494C0.625007 14.973 0.892007 15.41 1.26301 15.763C1.63401 16.116 2.09601 16.371 2.60401 16.506C4.50701 17 11.994 17 11.994 17C15.1347 17.0357 18.2746 16.8788 21.396 16.53C21.8978 16.4004 22.3583 16.145 22.734 15.788C23.0993 15.4417 23.3637 15.0028 23.499 14.518C23.8441 12.707 24.0119 10.8666 24 9.023C24.026 7.1716 23.8584 5.32256 23.5 3.506V3.507ZM9.60201 12.424V5.577L15.862 9.001L9.60201 12.424Z" fill="black"/>
</svg>
